<svg width="42" height="42" viewBox="0 0 42 42" fill="none" xmlns="http://www.w3.org/2000/svg">
<rect x="0.5" y="0.5" width="41" height="41" rx="3.5" stroke="black"/>
<path fill-rule="evenodd" clip-rule="evenodd" d="M24 16.75C24 17.4404 24.5596 18 25.25 18C25.9404 18 26.5 17.4404 26.5 16.75C26.5 16.0596 25.9404 15.5 25.25 15.5C24.5596 15.5 24 16.0596 24 16.75ZM22.8485 18.0909C22.6265 17.6942 22.5 17.2369 22.5 16.75C22.5 15.2312 23.7312 14 25.25 14C26.7688 14 28 15.2312 28 16.75C28 18.2688 26.7688 19.5 25.25 19.5C24.7631 19.5 24.3058 19.3735 23.9091 19.1515L19.1515 23.9091C19.3735 24.3058 19.5 24.7631 19.5 25.25C19.5 26.7688 18.2688 28 16.75 28C15.2312 28 14 26.7688 14 25.25C14 23.7312 15.2312 22.5 16.75 22.5C17.2369 22.5 17.6942 22.6265 18.0909 22.8485L22.8485 18.0909ZM15.5 25.25C15.5 25.9404 16.0596 26.5 16.75 26.5C17.4404 26.5 18 25.9404 18 25.25C18 24.5596 17.4404 24 16.75 24C16.0596 24 15.5 24.5596 15.5 25.25ZM16.75 18C16.0596 18 15.5 17.4404 15.5 16.75C15.5 16.0596 16.0596 15.5 16.75 15.5C17.4404 15.5 18 16.0596 18 16.75C18 17.4404 17.4404 18 16.75 18ZM14 16.75C14 18.2688 15.2312 19.5 16.75 19.5C18.2688 19.5 19.5 18.2688 19.5 16.75C19.5 15.2312 18.2688 14 16.75 14C15.2312 14 14 15.2312 14 16.75ZM24 25.25C24 25.9404 24.5596 26.5 25.25 26.5C25.9404 26.5 26.5 25.9404 26.5 25.25C26.5 24.5596 25.9404 24 25.25 24C24.5596 24 24 24.5596 24 25.25ZM25.25 28C23.7312 28 22.5 26.7688 22.5 25.25C22.5 23.7312 23.7312 22.5 25.25 22.5C26.7688 22.5 28 23.7312 28 25.25C28 26.7688 26.7688 28 25.25 28Z" fill="black"/>
</svg>
