<svg width="42" height="42" viewBox="0 0 42 42" fill="none" xmlns="http://www.w3.org/2000/svg">
<rect x="0.5" y="0.5" width="41" height="41" rx="3.5" stroke="black"/>
<path fill-rule="evenodd" clip-rule="evenodd" d="M18.8447 13C17.0497 13 15.5947 14.4551 15.5947 16.25V16.75C15.5947 18.5449 17.0497 20 18.8447 20H19.3447C21.1396 20 22.5947 18.5449 22.5947 16.75V16.25C22.5947 14.4551 21.1396 13 19.3447 13H18.8447ZM17.0947 16.25C17.0947 15.2835 17.8782 14.5 18.8447 14.5H19.3447C20.3112 14.5 21.0947 15.2835 21.0947 16.25V16.75C21.0947 17.7165 20.3112 18.5 19.3447 18.5H18.8447C17.8782 18.5 17.0947 17.7165 17.0947 16.75V16.25ZM28.9054 18.75L28.375 19.2803L25.625 22.0303C25.3321 22.3232 24.8573 22.3232 24.5644 22.0303L23.5644 21.0303L23.034 20.5L24.0947 19.4393L24.625 19.9697L25.0947 20.4393L27.3144 18.2197L27.8447 17.6893L28.9054 18.75ZM14.5947 26.1709V27.5H23.5947V26.1709C22.7751 24.5377 21.1016 23.5 19.2652 23.5H18.9241C17.0877 23.5 15.4142 24.5377 14.5947 26.1709ZM13.1637 25.6857C14.2007 23.4388 16.4495 22 18.9241 22H19.2652C21.7398 22 23.9887 23.4388 25.0257 25.6857L25.0947 25.8353V26V28.25V29H24.3447H13.8447H13.0947V28.25V26V25.8353L13.1637 25.6857Z" fill="#090808"/>
</svg>
