<svg width="42" height="42" viewBox="0 0 42 42" fill="none" xmlns="http://www.w3.org/2000/svg">
<rect x="0.5" y="0.5" width="41" height="41" rx="3.5" stroke="black"/>
<path fill-rule="evenodd" clip-rule="evenodd" d="M21.8447 13.0947L22.375 13.6251L28.375 19.6251L28.9054 20.1554L28.375 20.6857L26.8321 22.2286C26.2858 22.775 25.468 22.8846 24.8127 22.5573L22.6433 26.4622C21.8055 27.9702 20.2161 28.9054 18.4911 28.9054H13.8447H13.0947V28.1554V23.509C13.0947 21.784 14.0299 20.1945 15.5379 19.3568L19.4428 17.1874C19.1155 16.5321 19.2251 15.7143 19.7714 15.1679L21.3143 13.6251L21.8447 13.0947ZM20.4644 18.3357L23.6643 21.5357L21.3321 25.7337C20.7589 26.7655 19.6713 27.4054 18.4911 27.4054H15.6553L18.625 24.4357L17.5643 23.3751L14.5947 26.3447V23.509C14.5947 22.3287 15.2346 21.2412 16.2663 20.668L20.4644 18.3357ZM25.7715 21.168C25.6738 21.2656 25.5156 21.2656 25.4179 21.1679L25.125 20.8751L21.125 16.8751L20.8321 16.5822C20.7345 16.4845 20.7345 16.3262 20.8321 16.2286L21.8447 15.216L26.784 20.1554L25.7715 21.168Z" fill="black"/>
</svg>
